<svg xmlns="http://www.w3.org/2000/svg" width="753" height="571" viewBox="0 0 753 571">
  <g id="Account_2" transform="translate(-4390 739)">
    <g id="Ellipse_6" data-name="Ellipse 6" transform="translate(4620 -739)" fill="#2a2a2a" stroke="#2a2a2a" stroke-width="32">
      <circle cx="146.5" cy="146.5" r="146.5" stroke="none"/>
      <circle cx="146.5" cy="146.5" r="130.5" fill="none"/>
    </g>
    <g id="Subtraction_2" data-name="Subtraction 2" transform="translate(4258 -366)" fill="#2a2a2a">
      <path d="M 868.3045043945313 181.9999389648438 L 148.6955871582031 181.9999389648438 C 149.3026123046875 175.0279235839844 150.3054962158203 168.1089630126953 151.6981048583984 161.3036041259766 C 154.0877838134766 149.6253814697266 157.6535491943359 138.1385955810547 162.2962188720703 127.1621551513672 C 166.8561096191406 116.3811569213867 172.5007781982422 105.98193359375 179.0734405517578 96.25315856933594 C 185.5867767333984 86.61215972900391 193.0671081542969 77.54604339599609 201.3066711425781 69.30638122558594 C 209.5468902587891 61.06626892089844 218.6130065917969 53.58604431152344 228.2532196044922 47.07337951660156 C 237.9825592041016 40.5003776550293 248.3820037841797 34.8556022644043 259.1624450683594 30.29593467712402 C 270.1392211914063 25.65315628051758 281.6260070800781 22.08737945556641 293.3038940429688 19.69782447814941 C 305.294677734375 17.2441577911377 317.64111328125 16.00004577636719 330.0003356933594 16.00004577636719 L 686.999755859375 16.00004577636719 C 699.3590087890625 16.00004577636719 711.7054443359375 17.2441577911377 723.6962280273438 19.69782447814941 C 735.3740234375 22.08737945556641 746.8607788085938 25.65304565429688 757.8374633789063 30.29593467712402 C 768.6185302734375 34.8558235168457 779.0178833007813 40.50060272216797 788.7466430664063 47.07326889038086 C 798.3875732421875 53.58638000488281 807.4536743164063 61.06671142578125 815.6932373046875 69.30638122558594 C 823.932861328125 77.54593658447266 831.4132080078125 86.61204528808594 837.9265747070313 96.25304412841797 C 844.4993286132813 105.98193359375 850.1439819335938 116.3811569213867 854.7037963867188 127.1620483398438 C 859.346435546875 138.1385955810547 862.9122314453125 149.6253814697266 865.3018798828125 161.3036041259766 C 866.6943969726563 168.1084899902344 867.6974487304688 175.0287017822266 868.3045043945313 181.9999389648438 Z" stroke="none"/>
      <path d="M 849.9241333007813 165.9999237060547 C 849.8273315429688 165.5032653808594 849.7280883789063 165.0066223144531 849.6267700195313 164.5112915039063 C 847.44873046875 153.86767578125 844.198974609375 143.3986663818359 839.9676513671875 133.3947906494141 C 835.8103637695313 123.565544128418 830.6630249023438 114.0827941894531 824.6687622070313 105.2101745605469 C 818.7252197265625 96.41267395019531 811.8989868164063 88.13941955566406 804.37939453125 80.61991882324219 C 796.8599853515625 73.10041809082031 788.5868530273438 66.2742919921875 779.7898559570313 60.33129501342773 C 770.9168701171875 54.33692169189453 761.4341430664063 49.18954467773438 751.6043701171875 45.03192138671875 C 741.6008911132813 40.8006706237793 731.1318969726563 37.55092239379883 720.48876953125 35.37292098999023 C 709.5511474609375 33.13479614257813 698.2837524414063 32.00004577636719 686.999755859375 32.00004577636719 L 330.000244140625 32.00004577636719 C 318.7163696289063 32.00004577636719 307.4490051269531 33.13479614257813 296.5115051269531 35.37292098999023 C 285.8681335449219 37.55092239379883 275.3991394042969 40.8006706237793 265.3949890136719 45.03216934204102 C 255.5661315917969 49.18929672241211 246.08349609375 54.336669921875 237.2098693847656 60.33154678344727 C 228.4137573242188 66.27391815185547 220.140625 73.10004425048828 212.6206207275391 80.61991882324219 C 205.1004943847656 88.14004516601563 198.2743682861328 96.41329956054688 192.3313751220703 105.2101745605469 C 186.3372497558594 114.0826721191406 181.1898803710938 123.5654220581055 177.0322570800781 133.3950500488281 C 172.8009948730469 143.3986663818359 169.5512542724609 153.86767578125 167.3732452392578 164.5111694335938 C 167.2718963623047 165.0065155029297 167.1726684570313 165.5032653808594 167.0758361816406 165.9999237060547 L 849.9241333007813 165.9999237060547 M 884.999755859375 198.0000457763672 L 884.999755859375 197.9999237060547 L 884.999755859375 198.0000457763672 Z M 884.999755859375 197.9999237060547 L 132.000244140625 197.9999237060547 C 132.000244140625 184.5636749267578 133.35400390625 171.138427734375 136.0228729248047 158.0959167480469 C 138.6243743896484 145.3831634521484 142.5059967041016 132.8785400390625 147.5601196289063 120.9292984008789 C 152.5225067138672 109.1969223022461 158.6645050048828 97.88104248046875 165.8156280517578 87.29617309570313 C 172.8987426757813 76.81154632568359 181.0332489013672 66.95254516601563 189.9929962158203 57.99267196655273 C 198.953369140625 49.03242111206055 208.8125 40.89792251586914 219.2964935302734 33.8152961730957 C 229.8817443847656 26.6640453338623 241.1974945068359 20.52204513549805 252.9296264648438 15.55992031097412 C 264.8791198730469 10.5055456161499 277.3837585449219 6.623920917510986 290.0962524414063 4.02254581451416 C 303.1405029296875 1.353420734405518 316.5662536621094 4.57763671875e-05 330.000244140625 4.57763671875e-05 L 686.999755859375 4.57763671875e-05 C 700.4338989257813 4.57763671875e-05 713.859619140625 1.353420734405518 726.9037475585938 4.02254581451416 C 739.6162719726563 6.623920917510986 752.120849609375 10.5055456161499 764.0703735351563 15.55992031097412 C 775.8026123046875 20.52217102050781 787.1185302734375 26.66417121887207 797.70361328125 33.8152961730957 C 808.1878662109375 40.89817047119141 818.0469970703125 49.03254699707031 827.0070190429688 57.99267196655273 C 835.9668579101563 66.95242309570313 844.1012573242188 76.81154632568359 851.1846313476563 87.29617309570313 C 858.3356323242188 97.88117218017578 864.4776000976563 109.1970443725586 869.4398803710938 120.9292984008789 C 874.4940185546875 132.8785400390625 878.3756103515625 145.3831634521484 880.9771118164063 158.0959167480469 C 883.6463623046875 171.1400451660156 884.999755859375 184.5657958984375 884.999755859375 198.0000457763672 Z" stroke="none" fill="#2a2a2a"/>
    </g>
  </g>
</svg>
