<svg xmlns="http://www.w3.org/2000/svg" width="576.726" height="562.437" viewBox="0 0 576.726 562.437">
  <g id="favorite_2" transform="translate(-17.196 -273.553)">
    <g id="Path_7" data-name="Path 7" transform="translate(6 271)" fill="#2a2a2a">
      <path d="M 298.2814636230469 543.3447265625 C 248.4718322753906 496.594482421875 39.20549011230469 294.0486755371094 27.8814525604248 181.2039947509766 C 23.90495300292969 141.5778961181641 37.83625411987305 100.9308929443359 66.10305023193359 69.68539428710938 C 95.50065612792969 37.1901969909668 136.3446502685547 18.55319595336914 178.1622467041016 18.55319595336914 C 216.7523498535156 18.55319595336914 254.47705078125 34.48769378662109 287.258056640625 64.63409423828125 L 297.3319396972656 73.89829254150391 L 308.0452575683594 65.381591796875 C 344.7112426757813 36.23309707641602 384.9061584472656 20.82599639892578 424.2845458984375 20.82599639892578 C 465.9042663574219 20.82599639892578 504.3309631347656 37.57899475097656 532.4861450195313 67.99889373779297 C 560.905029296875 98.70359802246094 574.7421264648438 139.035888671875 571.4486694335938 181.5662994384766 C 562.4735107421875 297.4626159667969 349.0006408691406 497.3788146972656 298.2814636230469 543.3447265625 Z" stroke="none"/>
      <path d="M 178.1621704101563 34.55316162109375 C 140.8574829101563 34.55316162109375 104.3381652832031 51.27072143554688 77.9681396484375 80.41937255859375 C 52.72882080078125 108.3182678222656 40.275634765625 144.4705810546875 43.801513671875 179.6064758300781 C 53.0498046875 271.7667846679688 214.8793334960938 442.4158630371094 298.4716186523438 521.6744995117188 C 383.6214294433594 443.651611328125 548.1837768554688 274.7590942382813 555.4963989257813 180.3309326171875 C 558.4422607421875 142.2901611328125 546.0986938476563 106.2514953613281 520.739501953125 78.85360717773438 C 495.6529541015625 51.75027465820313 461.4068298339844 36.8245849609375 424.2891845703125 36.8260498046875 C 388.554931640625 36.83114624023438 351.80126953125 51.0364990234375 318.0018310546875 77.90615844726563 L 296.5752868652344 94.9398193359375 L 276.4273986816406 76.41116333007813 C 246.6504821777344 49.02737426757813 212.6709289550781 34.55316162109375 178.1621704101563 34.55316162109375 M 178.1621704101563 2.55316162109375 C 217.74365234375 2.55316162109375 259.6249084472656 17.48471069335938 298.0885009765625 52.85702514648438 C 340.3694152832031 19.24484252929688 384.0682983398438 4.831817626953125 424.2846069335938 4.826080322265625 C 519.2835693359375 4.8125 594.9598388671875 85.19149780273438 587.4008178710938 182.8016052246094 C 576.641845703125 321.7332763671875 298.0885009765625 564.990478515625 298.0885009765625 564.990478515625 C 298.0885009765625 564.990478515625 25.5244140625 317.9583740234375 11.96136474609375 182.8016052246094 C 2.40411376953125 87.56317138671875 83.727783203125 2.55316162109375 178.1621704101563 2.55316162109375 Z" stroke="none" fill="#2a2a2a"/>
    </g>
  </g>
</svg>
