<svg xmlns="http://www.w3.org/2000/svg" width="528" height="578.002" viewBox="0 0 528 578.002">
  <g id="home" transform="translate(-2225 746)">
    <g id="Subtraction_1" data-name="Subtraction 1" transform="translate(2225 -746)" fill="none">
      <path d="M528,578H348.687V387.015a60.068,60.068,0,0,0-60-60H240.177a60.068,60.068,0,0,0-60,60V578H0V256.047L264,0,528,256.047V578Z" stroke="none"/>
      <path d="M 496.0002746582031 546.0015869140625 L 496.0002746582031 269.5897216796875 L 263.999755859375 44.57849502563477 L 32.00004196166992 269.5896911621094 L 32.00004196166992 546.000732421875 L 148.1763763427734 546.000732421875 L 148.1763763427734 387.0152893066406 C 148.1763763427734 336.2861938476563 189.4476013183594 295.0149536132813 240.1767120361328 295.0149536132813 L 288.6877136230469 295.0149536132813 C 339.416259765625 295.0149536132813 380.6870422363281 336.2861938476563 380.6870422363281 387.0152893066406 L 380.6870422363281 546.0009155273438 L 496.0002746582031 546.0015869140625 M 528.000244140625 578.0017700195313 L 527.999267578125 578.0017700195313 L 348.6870422363281 578.000732421875 L 348.6870422363281 387.0152893066406 C 348.6870422363281 353.9310913085938 321.7713623046875 327.0149536132813 288.6877136230469 327.0149536132813 L 240.1767120361328 327.0149536132813 C 207.0923767089844 327.0149536132813 180.1763763427734 353.9310913085938 180.1763763427734 387.0152893066406 L 180.1763763427734 578.000732421875 L 4.147677827859297e-05 578.000732421875 L 4.147677827859297e-05 256.0473022460938 L 263.9996948242188 7.671440835110843e-05 L 528.000244140625 256.0473022460938 L 528.000244140625 578.000732421875 L 528.000244140625 578.0017700195313 Z" stroke="none" fill="#2a2a2a"/>
    </g>
  </g>
</svg>
