<svg xmlns="http://www.w3.org/2000/svg" width="528" height="578.002" viewBox="0 0 528 578.002">
  <g id="home_2" transform="translate(-2225 746)">
    <g id="Subtraction_1" data-name="Subtraction 1" transform="translate(2225 -746)" fill="#2a2a2a">
      <path d="M 512.0003051757813 562.0016479492188 L 364.6869812011719 562.0008544921875 L 364.6869812011719 387.0153198242188 C 364.6869812011719 345.1085815429688 330.5938720703125 311.0150451660156 288.6876831054688 311.0150451660156 L 240.1766967773438 311.0150451660156 C 198.2699737548828 311.0150451660156 164.1764221191406 345.1085815429688 164.1764221191406 387.0153198242188 L 164.1764221191406 562.0007934570313 L 15.99997043609619 562.0007934570313 L 15.99997043609619 262.8184509277344 L 263.9997253417969 22.28919410705566 L 512.0003051757813 262.8184814453125 L 512.0003051757813 562.0016479492188 Z" stroke="none"/>
      <path d="M 496.0002746582031 546.0015869140625 L 496.0002746582031 269.5897216796875 L 263.999755859375 44.57849502563477 L 32.00004196166992 269.5896911621094 L 32.00004196166992 546.000732421875 L 148.1763763427734 546.000732421875 L 148.1763763427734 387.0152893066406 C 148.1763763427734 336.2861938476563 189.4476013183594 295.0149536132813 240.1767120361328 295.0149536132813 L 288.6877136230469 295.0149536132813 C 339.416259765625 295.0149536132813 380.6870422363281 336.2861938476563 380.6870422363281 387.0152893066406 L 380.6870422363281 546.0009155273438 L 496.0002746582031 546.0015869140625 M 528.000244140625 578.0017700195313 L 527.999267578125 578.0017700195313 L 348.6870422363281 578.000732421875 L 348.6870422363281 387.0152893066406 C 348.6870422363281 353.9310913085938 321.7713623046875 327.0149536132813 288.6877136230469 327.0149536132813 L 240.1767120361328 327.0149536132813 C 207.0923767089844 327.0149536132813 180.1763763427734 353.9310913085938 180.1763763427734 387.0152893066406 L 180.1763763427734 578.000732421875 L 4.147677827859297e-05 578.000732421875 L 4.147677827859297e-05 256.0473022460938 L 263.9996948242188 7.671440835110843e-05 L 528.000244140625 256.0473022460938 L 528.000244140625 578.000732421875 L 528.000244140625 578.0017700195313 Z" stroke="none" fill="#2a2a2a"/>
    </g>
  </g>
</svg>
